<svg width="10" height="10" viewBox="0 0 10 10" fill="none" xmlns="http://www.w3.org/2000/svg">
<path d="M10 4.99941C10.0005 5.99938 9.70093 6.9765 9.14009 7.80444C8.57925 8.63238 7.78291 9.27306 6.85404 9.64366V9.64366C5.84184 10.0478 4.72528 10.11 3.67444 9.82084C2.62359 9.5317 1.69606 8.90706 1.03312 8.04206V8.04206C0.597794 7.47348 0.28934 6.81824 0.128526 6.12045C-0.0322877 5.42267 -0.0417289 4.69854 0.100838 3.9968V3.9968L0.106139 3.97105C0.272572 3.18267 0.626807 2.44609 1.13877 1.82385C1.65073 1.2016 2.30529 0.712066 3.04689 0.396806V0.396806C3.55242 0.183447 4.08986 0.0554981 4.63731 0.018178C4.76075 0.00454735 4.87966 3.81392e-06 5.00007 3.81392e-06C6.25789 -0.00154982 7.46995 0.471615 8.39397 1.32491C9.31798 2.17821 9.88588 3.34877 9.98413 4.6026C9.99473 4.73285 10 4.86613 10 4.99941Z" fill="#E0F1FA"/>
<path d="M9.98446 4.60253L9.88373 4.57678C9.77846 4.55028 9.70803 3.69609 9.59518 3.64687C9.48234 3.59765 9.46871 3.18192 9.3907 3.18192C9.3127 3.18192 9.28543 3.28036 9.19379 3.556C9.10215 3.83164 9.19379 3.90055 9.19379 4.02777C9.19379 4.15499 9.17259 4.39353 9.09534 4.30871C9.01809 4.2239 8.67956 3.25234 8.54551 3.2319C8.41146 3.21145 8.29256 2.92899 8.1941 2.88659C8.09565 2.84418 8.03128 2.90779 7.85557 2.90779C7.67987 2.90779 7.66548 2.76618 7.58747 2.77376C7.50947 2.78133 7.41177 2.73211 7.27848 2.71772C7.14519 2.70333 7.03537 2.46101 6.95055 2.57687C6.86573 2.69273 7.05052 2.90173 7.21941 2.99412C7.38829 3.0865 7.44661 2.97519 7.56324 3.01078C7.67987 3.04637 7.73894 3.24401 7.67608 3.42045C7.61322 3.59689 7.44282 3.68928 7.24667 3.77409C7.05052 3.8589 6.91647 3.92554 6.87482 3.6658C6.83316 3.40606 6.28863 2.94338 6.22502 2.85857C6.1614 2.77376 6.15989 2.60565 6.07355 2.62685C5.95616 2.65184 5.88497 2.73059 5.90618 2.76543C5.92738 2.80026 6.20911 3.30005 6.48251 3.47725C6.70214 3.61734 6.77863 3.95735 6.86951 4.07624C6.93616 4.16408 7.11111 4.12697 7.27166 4.08229C7.29187 4.07661 7.31319 4.07613 7.33363 4.08092C7.35407 4.08571 7.37297 4.0956 7.38855 4.10966C7.40413 4.12373 7.41589 4.14152 7.42273 4.16136C7.42958 4.18121 7.43128 4.20246 7.42767 4.22314C7.31559 4.77821 6.60369 5.15154 6.52795 5.44914C6.44389 5.78006 6.6408 6.18141 6.59839 6.35103C6.55598 6.52066 6.1402 6.54035 6.10536 6.70316C6.07052 6.86597 6.35074 6.99243 6.13944 7.1045C6.01826 7.16735 6.02962 6.9841 5.96449 7.20976C5.85089 7.60505 5.31697 7.79436 5.12612 7.84283C4.93527 7.89129 4.7891 7.82238 4.83757 7.69137C4.88604 7.56037 4.70428 7.07118 4.47859 6.90913C4.2529 6.74708 4.25139 6.5305 4.40286 5.99361C4.55432 5.45671 3.80456 5.52259 3.98783 5.07127C4.17111 4.61995 3.83258 4.65554 3.62128 4.46547C3.40998 4.27539 2.84046 5.20985 2.2043 4.27842C1.56813 3.347 2.52844 2.71545 2.67612 2.617C2.8238 2.51856 3.0919 2.17325 3.16233 2.1937C3.23277 2.21414 3.68263 2.10283 3.84394 2.04603C4.00525 1.98924 4.27335 1.96198 4.31576 2.04603C4.35817 2.13009 4.14006 2.09601 4.25896 2.24368C4.37786 2.39134 5.47071 2.48979 5.68882 2.47085C5.90693 2.45192 5.95692 2.49887 6.04023 2.27321C6.12353 2.04755 5.66686 2.06951 5.54114 2.08995C5.41542 2.1104 5.41466 1.82491 5.2382 2.02786C5.16247 2.11949 5.011 1.92412 4.99888 1.77494C4.98677 1.62576 4.57629 1.4425 4.5051 1.55533C4.43391 1.66816 4.82621 1.73026 4.83606 1.78251C4.84211 1.8075 4.76562 1.90897 4.72321 1.98697C4.6808 2.06496 4.66717 1.98697 4.67474 1.91654C4.68232 1.84612 4.47329 1.80295 4.3968 1.71208C4.32031 1.62121 4.12794 1.57048 3.95072 1.62803C3.77351 1.68558 3.7682 1.70981 3.59932 1.8855C3.43043 2.06118 3.11235 2.01499 3.06918 1.98697C3.02601 1.95895 3.11235 1.75979 3.1328 1.64317C3.15324 1.52656 3.37287 1.60001 3.49178 1.63484C3.61068 1.66968 3.60462 1.58562 3.58417 1.45916C3.56372 1.3327 3.61219 1.27288 3.68263 1.25849C3.75306 1.2441 4.10371 1.19791 4.25972 1.03585C4.38089 0.910907 4.57704 1.00102 4.6755 1.00102C4.77395 1.00102 5.08901 0.959372 5.13975 0.622393C5.15262 0.538337 5.17534 0.452767 5.03599 0.546667C4.93309 0.599531 4.85269 0.687715 4.80955 0.795047C4.76714 0.900306 4.4233 0.860171 4.2991 0.789746C4.1749 0.719322 4.3347 0.647382 4.68837 0.400517C5.04205 0.153652 5.54114 0.525464 5.66459 0.50729C5.78803 0.489116 6.13944 0.128662 6.13944 0.128662C7.17212 0.370081 8.10124 0.933665 8.79245 1.73792C9.48365 2.54217 9.90111 3.5454 9.98446 4.60253V4.60253Z" fill="url(#paint0_linear_320_413)"/>
<path d="M3.40035 1.02212C3.41171 1.02212 3.59953 0.932007 3.61392 0.968355C3.62831 1.0047 3.54955 1.11981 3.50714 1.13419C3.46473 1.14858 3.31023 1.17963 3.3072 1.15388C3.30417 1.12814 3.40035 1.02212 3.40035 1.02212Z" fill="url(#paint1_linear_320_413)"/>
<path d="M3.79528 0.800528C3.79528 0.800528 3.85133 0.744491 3.88768 0.761151C3.92403 0.777811 4.02854 0.988328 4.02854 0.988328C4.02854 0.988328 3.77559 1.13978 3.71197 1.12539C3.64836 1.111 3.82027 0.904272 3.79528 0.800528Z" fill="url(#paint2_linear_320_413)"/>
<path d="M9.28256 4.20788C9.2691 4.28733 9.2691 4.36848 9.28256 4.44793C9.29695 4.48882 9.35831 4.429 9.37119 4.40628C9.38407 4.38356 9.29241 4.20258 9.28256 4.20788Z" fill="url(#paint3_linear_320_413)"/>
<path d="M6.89164 6.4299C6.88413 6.43435 6.87766 6.44038 6.87269 6.44757C6.86773 6.45476 6.86437 6.46294 6.86286 6.47155C6.8515 6.55333 6.8765 6.66616 6.84166 6.72523C6.80682 6.78429 6.68489 7.03797 6.73942 7.10385C6.79395 7.16974 6.94314 7.2129 6.98555 7.14247C7.02796 7.07205 7.44829 6.09595 7.30212 6.09595C7.20442 6.09595 7.28697 6.21332 7.15065 6.28299C7.0522 6.33373 6.93936 6.39885 6.89164 6.4299Z" fill="url(#paint4_linear_320_413)"/>
<path d="M1.03302 8.04222C0.362099 7.16989 -0.00113356 6.10002 2.65755e-06 4.99957C-5.39009e-05 4.66904 0.0324157 4.33931 0.0969422 4.01514C0.0969422 4.01514 0.100729 4.01514 0.100729 4.01514C0.100729 4.15296 0.112846 5.01093 0.304454 5.09498C0.511965 5.1851 0.886091 5.33503 0.910326 5.58114C0.934561 5.82725 0.792181 6.14681 0.834592 6.28463C0.877003 6.42245 0.94062 6.89877 0.910326 6.96616C0.880032 7.03356 0.764159 7.01463 0.817173 7.17516C0.870187 7.3357 1.04438 7.71887 1.04438 7.82035C1.04733 7.8945 1.04353 7.96876 1.03302 8.04222V8.04222Z" fill="url(#paint5_linear_320_413)"/>
<path d="M6.85381 9.64342C5.93408 10.0091 4.92676 10.0947 3.9585 9.88953C4.03766 9.81049 4.13916 9.75763 4.24931 9.73808C4.42653 9.71082 5.27627 9.71082 5.42622 9.68431C5.57618 9.65781 6.01013 9.52605 6.12449 9.5783C6.2256 9.63908 6.34312 9.66687 6.46075 9.65781C6.5842 9.64342 6.81216 9.66008 6.85381 9.64342Z" fill="url(#paint6_linear_320_413)"/>
<defs>
<linearGradient id="paint0_linear_320_413" x1="1.98877" y1="3.99351" x2="9.98446" y2="3.99351" gradientUnits="userSpaceOnUse">
<stop stop-color="#085078"/>
<stop offset="1" stop-color="#85D8CE"/>
</linearGradient>
<linearGradient id="paint1_linear_320_413" x1="3.30713" y1="1.06174" x2="3.61565" y2="1.06174" gradientUnits="userSpaceOnUse">
<stop stop-color="#085078"/>
<stop offset="1" stop-color="#85D8CE"/>
</linearGradient>
<linearGradient id="paint2_linear_320_413" x1="3.69775" y1="0.942206" x2="4.02854" y2="0.942206" gradientUnits="userSpaceOnUse">
<stop stop-color="#085078"/>
<stop offset="1" stop-color="#85D8CE"/>
</linearGradient>
<linearGradient id="paint3_linear_320_413" x1="9.27246" y1="4.33482" x2="9.37243" y2="4.33482" gradientUnits="userSpaceOnUse">
<stop stop-color="#085078"/>
<stop offset="1" stop-color="#85D8CE"/>
</linearGradient>
<linearGradient id="paint4_linear_320_413" x1="6.72559" y1="6.63728" x2="7.33286" y2="6.63728" gradientUnits="userSpaceOnUse">
<stop stop-color="#085078"/>
<stop offset="1" stop-color="#85D8CE"/>
</linearGradient>
<linearGradient id="paint5_linear_320_413" x1="0" y1="6.02868" x2="1.04534" y2="6.02868" gradientUnits="userSpaceOnUse">
<stop stop-color="#085078"/>
<stop offset="1" stop-color="#85D8CE"/>
</linearGradient>
<linearGradient id="paint6_linear_320_413" x1="3.9585" y1="9.78237" x2="6.85381" y2="9.78237" gradientUnits="userSpaceOnUse">
<stop stop-color="#085078"/>
<stop offset="1" stop-color="#85D8CE"/>
</linearGradient>
</defs>
</svg>
