<svg width="24" height="24" viewBox="0 0 24 24" fill="none" xmlns="http://www.w3.org/2000/svg">
<path d="M13.1318 18.4945C13.1318 18.9049 12.6648 19.1406 12.3347 18.8967L7.08635 15.0189C7.06915 15.0062 7.04832 14.9993 7.02693 14.9993H3.5C3.22386 14.9993 3 14.7755 3 14.4993V9.49932C3 9.22318 3.22386 8.99932 3.5 8.99932H7.02836C7.04976 8.99932 7.07058 8.99246 7.08779 8.97975L12.3347 5.10268C12.6647 4.85879 13.1318 5.09442 13.1318 5.50481L13.1318 18.4945Z" fill="#CCCCCC"/>
<path d="M20.6318 6.99998C20.908 6.99998 21.1318 7.22383 21.1318 7.49998V16.5C21.1318 16.7761 20.908 17 20.6318 17H19.6318C19.3557 17 19.1318 16.7761 19.1318 16.5V7.49998C19.1318 7.22383 19.3557 6.99998 19.6318 6.99998L20.6318 6.99998Z" fill="#CCCCCC"/>
<path d="M16.6318 8.99998C16.908 8.99998 17.1318 9.22383 17.1318 9.49998L17.1318 14.5C17.1318 14.7761 16.908 15 16.6318 15H15.6318C15.3557 15 15.1318 14.7761 15.1318 14.5V9.49998C15.1318 9.22384 15.3557 8.99998 15.6318 8.99998H16.6318Z" fill="#CCCCCC"/>
</svg>
