<svg width="24" height="24" viewBox="0 0 24 24" fill="none" xmlns="http://www.w3.org/2000/svg">
<rect width="24" height="24" fill="none"/>
<path d="M4 5C4 4.44772 4.44772 4 5 4H19C19.5523 4 20 4.44772 20 5V19C20 19.5523 19.5523 20 19 20H5C4.44772 20 4 19.5523 4 19V5Z" fill="#EB9C03"/>
<path d="M5 6C5 5.44772 5.44772 5 6 5H18C18.5523 5 19 5.44772 19 6V10H5V6Z" fill="white"/>
<path d="M4 21H20C20 21.5523 19.5523 22 19 22H5C4.44772 22 4 21.5523 4 21Z" fill="#EB9C03"/>
<path d="M7 13C7 12.4477 7.44772 12 8 12C8.55228 12 9 12.4477 9 13C9 13.5523 8.55228 14 8 14C7.44772 14 7 13.5523 7 13Z" fill="white"/>
<path d="M7 17C7 16.4477 7.44772 16 8 16C8.55228 16 9 16.4477 9 17C9 17.5523 8.55228 18 8 18C7.44772 18 7 17.5523 7 17Z" fill="white"/>
<path d="M11 13C11 12.4477 11.4477 12 12 12C12.5523 12 13 12.4477 13 13C13 13.5523 12.5523 14 12 14C11.4477 14 11 13.5523 11 13Z" fill="white"/>
<path d="M11 17C11 16.4477 11.4477 16 12 16C12.5523 16 13 16.4477 13 17C13 17.5523 12.5523 18 12 18C11.4477 18 11 17.5523 11 17Z" fill="white"/>
<path d="M15 13C15 12.4477 15.4477 12 16 12C16.5523 12 17 12.4477 17 13C17 13.5523 16.5523 14 16 14C15.4477 14 15 13.5523 15 13Z" fill="white"/>
<path d="M15 17C15 16.4477 15.4477 16 16 16C16.5523 16 17 16.4477 17 17C17 17.5523 16.5523 18 16 18C15.4477 18 15 17.5523 15 17Z" fill="white"/>
<path d="M7 3C7 2.44772 7.44772 2 8 2C8.55228 2 9 2.44772 9 3V7C9 7.55228 8.55228 8 8 8C7.44772 8 7 7.55228 7 7V3Z" fill="#EB9C03"/>
<path d="M15 3C15 2.44772 15.4477 2 16 2C16.5523 2 17 2.44772 17 3V7C17 7.55228 16.5523 8 16 8C15.4477 8 15 7.55228 15 7V3Z" fill="#EB9C03"/>
</svg>
