<svg xmlns="http://www.w3.org/2000/svg" viewBox="0 0 20 21" fill="none" style="display:none;">
    <path
      d="M14.6375 17.875H6.13122C5.23747 17.875 4.50622 17.1438 4.50622 16.25V15.2062C4.50622 14.95 4.71872 14.7375 4.97497 14.7375C5.23122 14.7375 5.44372 14.95 5.44372 15.2062V16.25C5.44372 16.6313 5.74997 16.9375 6.13122 16.9375H14.6375C15.0562 16.9375 15.4062 16.6625 15.4062 16.3375V4.47498C15.4062 4.08123 14.9875 3.75 14.4937 3.75H6.36872C5.86247 3.75 5.43747 4.0875 5.43747 4.49375V5.76874C5.43747 6.02499 5.22497 6.23749 4.96872 6.23749C4.71247 6.23749 4.49997 6.02499 4.49997 5.76874V4.49375C4.49997 3.56875 5.33747 2.8125 6.36872 2.8125H14.4937C15.5125 2.8125 16.3437 3.55623 16.3437 4.47498V16.3375C16.3437 17.1875 15.5812 17.875 14.6375 17.875Z"
      fill="#CCCCCC" />
    <path
      d="M13.5875 8.39999H9.31247C9.05622 8.39999 8.84372 8.18749 8.84372 7.93124C8.84372 7.67499 9.05622 7.46249 9.31247 7.46249H13.5875C13.8437 7.46249 14.0562 7.67499 14.0562 7.93124C14.0562 8.18749 13.8437 8.39999 13.5875 8.39999Z"
      fill="#CCCCCC" />
    <path
      d="M13.5687 11.1437H9.29373C9.03748 11.1437 8.82498 10.9312 8.82498 10.675C8.82498 10.4187 9.03748 10.2062 9.29373 10.2062H13.5687C13.825 10.2062 14.0375 10.4187 14.0375 10.675C14.0375 10.9312 13.825 11.1437 13.5687 11.1437Z"
      fill="#CCCCCC" />
    <path
      d="M13.5875 14.0875H9.31247C9.05622 14.0875 8.84372 13.875 8.84372 13.6187C8.84372 13.3625 9.05622 13.15 9.31247 13.15H13.5875C13.8437 13.15 14.0562 13.3625 14.0562 13.6187C14.0562 13.875 13.8437 14.0875 13.5875 14.0875Z"
      fill="#CCCCCC" />
    <path
      d="M7.28748 8.39999H3.19373C2.93748 8.39999 2.72498 8.18749 2.72498 7.93124C2.72498 7.67499 2.93748 7.46249 3.19373 7.46249H7.28748C7.54373 7.46249 7.75623 7.67499 7.75623 7.93124C7.75623 8.18749 7.54373 8.39999 7.28748 8.39999Z"
      fill="#CCCCCC" />
    <path
      d="M7.29998 9.84375H3.20624C2.94999 9.84375 2.73749 9.63125 2.73749 9.375C2.73749 9.11875 2.94999 8.90625 3.20624 8.90625H7.29998C7.55623 8.90625 7.76873 9.11875 7.76873 9.375C7.76873 9.63125 7.55623 9.84375 7.29998 9.84375Z"
      fill="#CCCCCC" />
    <path
      d="M6.15623 14.325C6.03123 14.325 5.90623 14.275 5.81248 14.175C5.79998 14.1625 4.37498 12.6437 3.26873 11.5687C3.13123 11.4375 3.08749 11.2312 3.16249 11.0562C3.23749 10.8812 3.40623 10.7625 3.59373 10.7625C5.05623 10.7625 5.79373 10.3062 5.79373 9.41249C5.79373 8.66249 5.19373 8.39374 4.63748 8.39374C4.38123 8.39374 4.16873 8.18124 4.16873 7.92499C4.16873 7.66874 4.38123 7.45624 4.63748 7.45624C5.87498 7.45624 6.73123 8.26249 6.73123 9.41249C6.73123 10.0062 6.50623 11.2687 4.64373 11.6125C5.57498 12.5562 6.48123 13.5187 6.49373 13.5312C6.66873 13.7187 6.66248 14.0187 6.47498 14.1937C6.38748 14.2812 6.26873 14.3187 6.15623 14.3187V14.325Z"
      fill="#CCCCCC" />
</svg>
