<svg width="24" height="24" viewBox="0 0 24 24" fill="none" xmlns="http://www.w3.org/2000/svg">
<path d="M15.5 22H8.5C7.57174 22 6.6815 21.6313 6.02513 20.9749C5.36875 20.3185 5 19.4283 5 18.5V5.5C5 4.57174 5.36875 3.6815 6.02513 3.02513C6.6815 2.36875 7.57174 2 8.5 2H14.41C14.5426 2 14.6698 2.05268 14.7636 2.14645C14.8573 2.24021 14.91 2.36739 14.91 2.5C14.91 2.63261 14.8573 2.75979 14.7636 2.85355C14.6698 2.94732 14.5426 3 14.41 3H8.5C7.83696 3 7.20107 3.26339 6.73223 3.73223C6.26339 4.20107 6 4.83696 6 5.5V18.5C6 19.163 6.26339 19.7989 6.73223 20.2678C7.20107 20.7366 7.83696 21 8.5 21H15.5C16.163 21 16.7989 20.7366 17.2678 20.2678C17.7366 19.7989 18 19.163 18 18.5V7.41C18 7.27739 18.0527 7.15022 18.1464 7.05645C18.2402 6.96268 18.3674 6.91 18.5 6.91C18.6326 6.91 18.7598 6.96268 18.8536 7.05645C18.9473 7.15022 19 7.27739 19 7.41V18.5C19 19.4283 18.6313 20.3185 17.9749 20.9749C17.3185 21.6313 16.4283 22 15.5 22Z" fill="#CCCCCC"/>
<path d="M17.5899 9H14.4099C14.0127 8.97425 13.6418 8.79278 13.3778 8.49503C13.1138 8.19729 12.9779 7.80735 12.9999 7.41V3.59C12.9779 3.19265 13.1138 2.80271 13.3778 2.50497C13.6418 2.20723 14.0127 2.02575 14.4099 2C14.4826 1.99992 14.5544 2.01603 14.6201 2.04717C14.6859 2.0783 14.7438 2.12368 14.7899 2.18L18.8799 7.09C18.9586 7.17783 19.0014 7.29206 18.9999 7.41C19.0218 7.80735 18.8859 8.19729 18.6219 8.49503C18.3579 8.79278 17.987 8.97425 17.5899 9ZM14.2299 3.07C14.154 3.13309 14.0938 3.21285 14.0539 3.30306C14.014 3.39326 13.9955 3.49146 13.9999 3.59V7.41C13.9999 7.72 14.1899 8 14.4099 8H17.5899C17.7699 8 17.9299 7.81 17.9799 7.57L14.2299 3.07Z" fill="#CCCCCC"/>
<path d="M15 13.5H9C8.86739 13.5 8.74021 13.4473 8.64645 13.3536C8.55268 13.2598 8.5 13.1326 8.5 13C8.5 12.8674 8.55268 12.7402 8.64645 12.6464C8.74021 12.5527 8.86739 12.5 9 12.5H15C15.1326 12.5 15.2598 12.5527 15.3536 12.6464C15.4473 12.7402 15.5 12.8674 15.5 13C15.5 13.1326 15.4473 13.2598 15.3536 13.3536C15.2598 13.4473 15.1326 13.5 15 13.5Z" fill="#CCCCCC"/>
<path d="M15 17.5H9C8.86739 17.5 8.74021 17.4473 8.64645 17.3536C8.55268 17.2598 8.5 17.1326 8.5 17C8.5 16.8674 8.55268 16.7402 8.64645 16.6464C8.74021 16.5527 8.86739 16.5 9 16.5H15C15.1326 16.5 15.2598 16.5527 15.3536 16.6464C15.4473 16.7402 15.5 16.8674 15.5 17C15.5 17.1326 15.4473 17.2598 15.3536 17.3536C15.2598 17.4473 15.1326 17.5 15 17.5Z" fill="#CCCCCC"/>
</svg>
