<svg width="24" height="24" viewBox="0 0 24 24" fill="none" xmlns="http://www.w3.org/2000/svg">
<path d="M15.15 19H18C18.5523 19 19 18.5523 19 18V12C19 11.4477 18.5523 11 18 11H15.15C15.0672 11 15 11.0672 15 11.15L15 18.85C15 18.9328 15.0672 19 15.15 19Z" stroke="#5D5C5C" stroke-width="1.5" stroke-linecap="round"/>
<path d="M15 11L13.1679 8.25192C13.0584 8.08766 13 7.89465 13 7.69722V5C13 4.44772 12.5523 4 12 4L11 4C9.89543 4 9 4.89543 9 6L9 11" stroke="#5D5C5C" stroke-width="1.5" stroke-linecap="round"/>
<path d="M11 11L6.23453 11C5.04251 11 4.11513 12.0361 4.24676 13.2209L4.80232 18.2209C4.91486 19.2337 5.77099 20 6.79009 20H10.5858C10.851 20 11.1054 19.8946 11.2929 19.7071L11.7071 19.2929C11.8946 19.1054 12.149 19 12.4142 19H15" stroke="#5D5C5C" stroke-width="1.5" stroke-linecap="round"/>
</svg>
