<svg width="20" height="16" viewBox="0 0 20 16" fill="none" xmlns="http://www.w3.org/2000/svg">
<path d="M1.49442 7.2558H4.87775C5.49803 7.2558 6.00553 6.7483 6.00553 6.12802V1.61691C6.00553 0.996636 5.49803 0.489136 4.87775 0.489136H1.49442C0.874138 0.489136 0.366638 0.996636 0.366638 1.61691V6.12802C0.366638 6.7483 0.874138 7.2558 1.49442 7.2558ZM1.49442 15.1502H4.87775C5.49803 15.1502 6.00553 14.6427 6.00553 14.0225V9.51136C6.00553 8.89108 5.49803 8.38358 4.87775 8.38358H1.49442C0.874138 8.38358 0.366638 8.89108 0.366638 9.51136V14.0225C0.366638 14.6427 0.874138 15.1502 1.49442 15.1502ZM8.26108 15.1502H11.6444C12.2647 15.1502 12.7722 14.6427 12.7722 14.0225V9.51136C12.7722 8.89108 12.2647 8.38358 11.6444 8.38358H8.26108C7.6408 8.38358 7.1333 8.89108 7.1333 9.51136V14.0225C7.1333 14.6427 7.6408 15.1502 8.26108 15.1502ZM15.0277 15.1502H18.4111C19.0314 15.1502 19.5389 14.6427 19.5389 14.0225V9.51136C19.5389 8.89108 19.0314 8.38358 18.4111 8.38358H15.0277C14.4075 8.38358 13.9 8.89108 13.9 9.51136V14.0225C13.9 14.6427 14.4075 15.1502 15.0277 15.1502ZM8.26108 7.2558H11.6444C12.2647 7.2558 12.7722 6.7483 12.7722 6.12802V1.61691C12.7722 0.996636 12.2647 0.489136 11.6444 0.489136H8.26108C7.6408 0.489136 7.1333 0.996636 7.1333 1.61691V6.12802C7.1333 6.7483 7.6408 7.2558 8.26108 7.2558ZM13.9 1.61691V6.12802C13.9 6.7483 14.4075 7.2558 15.0277 7.2558H18.4111C19.0314 7.2558 19.5389 6.7483 19.5389 6.12802V1.61691C19.5389 0.996636 19.0314 0.489136 18.4111 0.489136H15.0277C14.4075 0.489136 13.9 0.996636 13.9 1.61691Z" fill="#cccccc"/>
</svg>
