<svg width="279" height="155" viewBox="0 0 279 155" fill="none" xmlns="http://www.w3.org/2000/svg">
<path d="M57.3636 58.8182C57.0606 55.4848 55.7121 52.8939 53.3182 51.0455C50.9545 49.1667 47.5758 48.2273 43.1818 48.2273C40.2727 48.2273 37.8485 48.6061 35.9091 49.3636C33.9697 50.1212 32.5152 51.1667 31.5455 52.5C30.5758 53.803 30.0758 55.303 30.0455 57C29.9848 58.3939 30.2576 59.6212 30.8636 60.6818C31.5 61.7424 32.4091 62.6818 33.5909 63.5C34.803 64.2879 36.2576 64.9848 37.9545 65.5909C39.6515 66.197 41.5606 66.7273 43.6818 67.1818L51.6818 69C56.2879 70 60.3485 71.3333 63.8636 73C67.4091 74.6667 70.3788 76.6515 72.7727 78.9545C75.197 81.2576 77.0303 83.9091 78.2727 86.9091C79.5152 89.9091 80.1515 93.2727 80.1818 97C80.1515 102.879 78.6667 107.924 75.7273 112.136C72.7879 116.348 68.5606 119.576 63.0455 121.818C57.5606 124.061 50.9394 125.182 43.1818 125.182C35.3939 125.182 28.6061 124.015 22.8182 121.682C17.0303 119.348 12.5303 115.803 9.31818 111.045C6.10606 106.288 4.45455 100.273 4.36364 93H25.9091C26.0909 96 26.8939 98.5 28.3182 100.5C29.7424 102.5 31.697 104.015 34.1818 105.045C36.697 106.076 39.6061 106.591 42.9091 106.591C45.9394 106.591 48.5152 106.182 50.6364 105.364C52.7879 104.545 54.4394 103.409 55.5909 101.955C56.7424 100.5 57.3333 98.8333 57.3636 96.9545C57.3333 95.197 56.7879 93.697 55.7273 92.4545C54.6667 91.1818 53.0303 90.0909 50.8182 89.1818C48.6364 88.2424 45.8485 87.3788 42.4545 86.5909L32.7273 84.3182C24.6667 82.4697 18.3182 79.4848 13.6818 75.3636C9.04545 71.2121 6.74242 65.6061 6.77273 58.5455C6.74242 52.7879 8.28788 47.7424 11.4091 43.4091C14.5303 39.0758 18.8485 35.697 24.3636 33.2727C29.8788 30.8485 36.1667 29.6364 43.2273 29.6364C50.4394 29.6364 56.697 30.8636 62 33.3182C67.3333 35.7424 71.4697 39.1515 74.4091 43.5455C77.3485 47.9394 78.8485 53.0303 78.9091 58.8182H57.3636Z" fill="#356AC3"/>
<path d="M106.318 106.273H115.409L119.273 111.205L124.341 117.023L132.136 126.636H121.955L116.5 120.114L113.273 115.477L106.318 106.273ZM132.455 99.7273C132.455 104.848 131.47 109.189 129.5 112.75C127.53 116.311 124.864 119.015 121.5 120.864C118.152 122.712 114.394 123.636 110.227 123.636C106.045 123.636 102.28 122.705 98.9318 120.841C95.5833 118.977 92.9242 116.273 90.9545 112.727C89 109.167 88.0227 104.833 88.0227 99.7273C88.0227 94.6061 89 90.2652 90.9545 86.7045C92.9242 83.1439 95.5833 80.4394 98.9318 78.5909C102.28 76.7424 106.045 75.8182 110.227 75.8182C114.394 75.8182 118.152 76.7424 121.5 78.5909C124.864 80.4394 127.53 83.1439 129.5 86.7045C131.47 90.2652 132.455 94.6061 132.455 99.7273ZM120.955 99.7273C120.955 96.697 120.523 94.1364 119.659 92.0455C118.811 89.9545 117.583 88.3712 115.977 87.2955C114.386 86.2197 112.47 85.6818 110.227 85.6818C108 85.6818 106.083 86.2197 104.477 87.2955C102.871 88.3712 101.636 89.9545 100.773 92.0455C99.9242 94.1364 99.5 96.697 99.5 99.7273C99.5 102.758 99.9242 105.318 100.773 107.409C101.636 109.5 102.871 111.083 104.477 112.159C106.083 113.235 108 113.773 110.227 113.773C112.47 113.773 114.386 113.235 115.977 112.159C117.583 111.083 118.811 109.5 119.659 107.409C120.523 105.318 120.955 102.758 120.955 99.7273Z" fill="#BB362A"/>
<path d="M252.727 123H235.523V76.4545H252.705C257.447 76.4545 261.53 77.3864 264.955 79.25C268.394 81.0985 271.045 83.7651 272.909 87.25C274.773 90.7197 275.705 94.8712 275.705 99.7045C275.705 104.553 274.773 108.72 272.909 112.205C271.061 115.689 268.417 118.364 264.977 120.227C261.538 122.076 257.455 123 252.727 123ZM246.773 113.409H252.295C254.902 113.409 257.106 112.97 258.909 112.091C260.727 111.197 262.098 109.75 263.023 107.75C263.962 105.735 264.432 103.053 264.432 99.7045C264.432 96.3561 263.962 93.6894 263.023 91.7045C262.083 89.7045 260.697 88.2652 258.864 87.3864C257.045 86.4924 254.803 86.0455 252.136 86.0455H246.773V113.409Z" fill="#356AC3"/>
<path d="M195.591 123H183.5L199.205 76.4545H214.182L229.886 123H217.795L206.864 88.1818H206.5L195.591 123ZM193.977 104.682H219.25V113.227H193.977V104.682Z" fill="#2A8642"/>
<path d="M167.682 77.4545H178.909V107.477C178.909 110.947 178.083 113.97 176.432 116.545C174.78 119.106 172.477 121.091 169.523 122.5C166.568 123.894 163.136 124.591 159.227 124.591C155.273 124.591 151.818 123.894 148.864 122.5C145.909 121.091 143.614 119.106 141.977 116.545C140.341 113.97 139.523 110.947 139.523 107.477V77.4545H150.773V106.5C150.773 108.106 151.121 109.538 151.818 110.795C152.53 112.053 153.523 113.038 154.795 113.75C156.068 114.462 157.545 114.818 159.227 114.818C160.909 114.818 162.379 114.462 163.636 113.75C164.909 113.038 165.902 112.053 166.614 110.795C167.326 109.538 167.682 108.106 167.682 106.5V77.4545Z" fill="#C99604"/>
</svg>
